
<svg width="215" height="50" viewBox="0 0 215 50" fill="none" xmlns="http://www.w3.org/2000/svg">
  <path d="M15.088 36.84C13.1413 36.84 11.4013 36.4933 9.868 35.8C8.35733 35.0853 7.16267 34.092 6.284 32.82C5.428 31.5267 5 30.0347 5 28.344C5 26.6533 5.428 25.172 6.284 23.9C7.16267 22.628 8.368 21.6453 9.9 20.952C11.432 20.2587 13.172 19.912 15.12 19.912C16.7467 19.912 18.22 20.1373 19.54 20.588C20.86 21.0173 21.996 21.66 22.948 22.516L20.7 26.012C20.0067 25.3613 19.2387 24.8573 18.396 24.5C17.576 24.1213 16.6987 23.932 15.764 23.932C14.236 23.932 13.0093 24.3533 12.084 25.196C11.1587 26.0173 10.696 27.0747 10.696 28.376C10.696 29.6773 11.1587 30.7347 12.084 31.556C13.0093 32.3773 14.236 32.788 15.764 32.788C16.6987 32.788 17.576 32.6093 18.396 32.252C19.2387 31.8733 20.0173 31.3587 20.732 30.708L22.948 34.204C21.996 35.06 20.86 35.7133 19.54 36.164C18.22 36.6147 16.7147 36.84 15.088 36.84ZM31.8921 36.84C30.3961 36.84 29.0761 36.5147 27.9321 35.864C26.7881 35.2133 25.9021 34.3273 25.2721 33.206C24.6421 32.0847 24.3271 30.804 24.3271 29.364C24.3271 27.9027 24.6421 26.6113 25.2721 25.49C25.9021 24.3687 26.7881 23.4827 27.9321 22.832C29.0761 22.1813 30.3961 21.856 31.8921 21.856C33.3881 21.856 34.7081 22.1813 35.8521 22.832C36.9961 23.4827 37.8821 24.3687 38.5121 25.49C39.1421 26.6113 39.4571 27.9027 39.4571 29.364C39.4571 30.804 39.1421 32.0847 38.5121 33.206C37.8821 34.3273 36.9961 35.2133 35.8521 35.864C34.7081 36.5147 33.3881 36.84 31.8921 36.84ZM31.8921 33.206C32.8601 33.206 33.6281 32.9013 34.1961 32.292C34.7641 31.6613 35.0481 30.708 35.0481 29.432C35.0481 28.1347 34.7641 27.1707 34.1961 26.54C33.6281 25.9093 32.8601 25.594 31.8921 25.594C30.9241 25.594 30.1561 25.9093 29.5881 26.54C29.0201 27.1707 28.7361 28.1347 28.7361 29.432C28.7361 30.708 29.0201 31.6613 29.5881 32.292C30.1561 32.9013 30.9241 33.206 31.8921 33.206ZM47.6534 36.84C46.1787 36.84 44.9187 36.5467 43.8734 35.96C42.8494 35.352 42.0707 34.4873 41.5374 33.366C41.004 32.2447 40.7374 30.9107 40.7374 29.364C40.7374 27.7747 41.0147 26.4193 41.5694 25.298C42.124 24.1767 42.9134 23.312 43.9374 22.704C44.9614 22.0747 46.1787 21.76 47.5894 21.76C48.7547 21.76 49.7467 22.0107 50.5654 22.512C51.4054 22.992 52.0247 23.6327 52.4234 24.434V17.09H56.7364V36.5H52.5834V34.138C52.0927 35.0207 51.3814 35.7027 50.4494 36.182C49.5174 36.6207 48.6634 36.84 47.6534 36.84ZM49.0774 33.174C50.0454 33.174 50.8534 32.8693 51.5014 32.26C52.1494 31.6293 52.4734 30.6867 52.4734 29.432C52.4734 28.1773 52.1494 27.256 51.5014 26.668C50.8534 26.0587 50.0454 25.754 49.0774 25.754C48.1307 25.754 47.3334 26.0587 46.6854 26.668C46.0374 27.256 45.7134 28.1773 45.7134 29.432C45.7134 30.6867 46.0374 31.6293 46.6854 32.26C47.3334 32.8693 48.1307 33.174 49.0774 33.174ZM65.9849 36.84C64.4889 36.84 63.1689 36.5147 62.0249 35.864C60.8809 35.2133 59.9949 34.3273 59.3649 33.206C58.7349 32.0847 58.4199 30.804 58.4199 29.364C58.4199 27.9027 58.7349 26.6113 59.3649 25.49C59.9949 24.3687 60.8809 23.4827 62.0249 22.832C63.1689 22.1813 64.4889 21.856 65.9849 21.856C67.4809 21.856 68.8009 22.1813 69.9449 22.832C71.0889 23.4827 71.9749 24.3687 72.6049 25.49C73.2349 26.6113 73.5499 27.9027 73.5499 29.364C73.5499 30.804 73.2349 32.0847 72.6049 33.206C71.9749 34.3273 71.0889 35.2133 69.9449 35.864C68.8009 36.5147 67.4809 36.84 65.9849 36.84ZM65.9849 33.206C66.9529 33.206 67.7209 32.9013 68.2889 32.292C68.8569 31.6613 69.1409 30.708 69.1409 29.432C69.1409 28.1347 68.8569 27.1707 68.2889 26.54C67.7209 25.9093 66.9529 25.594 65.9849 25.594C65.0169 25.594 64.2489 25.9093 63.6809 26.54C63.1129 27.1707 62.8289 28.1347 62.8289 29.432C62.8289 30.708 63.1129 31.6613 63.6809 32.292C64.2489 32.9013 65.0169 33.206 65.9849 33.206ZM89.7862 21.76C91.2182 21.76 92.4409 22.1493 93.4542 22.928C94.4889 23.6853 95.1509 24.7853 95.4402 26.228V21.856H99.9462V36.5H95.4402V32.128C95.1509 33.57 94.4889 34.6807 93.4542 35.46C92.4409 36.2393 91.2182 36.628 89.7862 36.628C88.4662 36.628 87.2902 36.3133 86.2582 35.684C85.2475 35.0333 84.4609 34.1473 83.8982 33.026C83.3569 31.8833 83.0862 30.592 83.0862 29.152C83.0862 27.712 83.3569 26.4207 83.8982 25.278C84.4609 24.1353 85.2475 23.2493 86.2582 22.62C87.2902 21.9907 88.4662 21.76 89.7862 21.76ZM90.9622 25.754C89.9942 25.754 89.1969 26.0693 88.5702 26.7C87.9435 27.3307 87.6302 28.1773 87.6302 29.332C87.6302 30.4867 87.9435 31.3333 88.5702 31.964C89.1969 32.5947 89.9942 32.91 90.9622 32.91C91.9302 32.91 92.7275 32.5947 93.3542 31.964C93.9809 31.312 94.2942 30.4547 94.2942 29.4C94.2942 28.3027 93.9809 27.4453 93.3542 26.826C92.7275 26.1853 91.9302 25.8593 90.9622 25.754ZM108.046 36.5C106.39 36.5 105.022 36.1533 103.942 35.46C102.862 34.7453 102.082 33.8167 101.602 32.676C101.122 31.5353 100.882 30.3167 100.882 29.02C100.882 27.7447 101.122 26.5367 101.602 25.396C102.082 24.2553 102.862 23.3373 103.942 22.644C105.022 21.9507 106.39 21.604 108.046 21.604C109.256 21.604 110.368 21.8507 111.384 22.344C112.421 22.8373 113.264 23.536 113.91 24.44L111.566 27.136C111.187 26.5493 110.742 26.0987 110.228 25.786C109.713 25.4733 109.134 25.318 108.49 25.318C107.522 25.318 106.744 25.6413 106.154 26.288C105.565 26.9133 105.27 27.7873 105.27 28.91C105.27 30.0327 105.565 30.9187 106.154 31.566C106.744 32.1913 107.522 32.504 108.49 32.504C109.134 32.504 109.713 32.3487 110.228 32.036C110.742 31.7233 111.187 31.2833 111.566 30.718L113.91 33.382C113.264 34.2647 112.421 34.9633 111.384 35.478C110.368 35.9713 109.256 36.218 108.046 36.5ZM129.619 28.886C129.619 29.5587 129.587 30.0407 129.523 30.332H119.539C119.646 31.132 119.97 31.762 120.517 32.222C121.063 32.6607 121.748 32.88 122.567 32.88C123.749 32.88 124.706 32.4387 125.437 31.556L128.291 33.684C127.6 34.7853 126.727 35.6287 125.671 36.212C124.615 36.7953 123.355 37.087 121.891 37.087C120.267 37.087 118.845 36.74 117.627 36.046C116.408 35.352 115.468 34.3693 114.795 33.098C114.144 31.8053 113.819 30.332 113.819 28.678C113.819 27.0453 114.133 25.594 114.763 24.322C115.415 23.0287 116.322 22.0353 117.489 21.342C118.675 20.6487 120.033 20.3027 121.571 20.302C123.045 20.3027 124.361 20.6273 125.523 21.278C126.685 21.9287 127.579 22.8573 128.209 24.066C128.839 25.2533 129.155 26.6753 129.155 28.336L129.619 28.886ZM121.603 24.194C120.891 24.194 120.291 24.4193 119.803 24.87C119.315 25.3207 119.006 25.9613 118.879 26.794H124.295C124.167 25.9827 123.859 25.3527 123.371 24.902C122.883 24.43 122.293 24.194 121.603 24.194ZM143.769 21.856V33.206C143.769 36.5533 142.075 38.268 138.685 38.334C137.261 38.3553 135.999 38.0087 134.899 37.302L136.283 34.202C136.921 34.6007 137.677 34.8047 138.547 34.814C139.877 34.814 140.541 34.2647 140.541 33.174V32.26C139.797 33.0607 138.76 33.462 137.431 33.462C136.197 33.462 135.088 33.1687 134.109 32.582C133.13 31.974 132.372 31.13 131.847 30.05C131.343 28.9487 131.091 27.712 131.091 26.34C131.091 24.9467 131.343 23.71 131.847 22.63C132.372 21.55 133.13 20.7173 134.109 20.13C135.109 19.5213 136.23 19.2173 137.463 19.218C138.856 19.2173 139.946 19.6293 140.733 20.462V19.218H143.769V21.856ZM138.353 30.524C139.321 30.524 140.108 30.2193 140.713 29.61C141.318 28.9793 141.621 28.1347 141.621 27.074C141.621 26.0133 141.318 25.1793 140.713 24.57C140.108 23.9393 139.321 23.624 138.353 23.624C137.385 23.624 136.598 23.9393 135.993 24.57C135.388 25.1793 135.085 26.0133 135.085 27.074C135.085 28.1347 135.388 28.9793 135.993 29.61C136.598 30.2193 137.385 30.524 138.353 30.524ZM148.776 21.856L152.496 30.282L156.28 21.856H160.592L154.264 36.5H150.696L144.432 21.856H148.776Z" fill="#9b87f5"/>
  <path d="M161.5 21.856H165.532V36.5H161.5V21.856ZM163.532 19.906C162.756 19.906 162.116 19.6613 161.606 19.17C161.116 18.6573 160.87 18.0487 160.87 17.346C160.87 16.6433 161.116 16.0453 161.606 15.554C162.116 15.0413 162.756 14.786 163.532 14.786C164.308 14.786 164.936 15.0307 165.426 15.522C165.936 15.992 166.182 16.58 166.182 17.282C166.182 18.0273 165.936 18.6573 165.426 19.17C164.936 19.6613 164.308 19.906 163.532 19.906ZM178.604 21.856V25.166H171.12V21.856H178.604ZM172.944 18.564H177.008V31.534C177.008 32.0673 177.105 32.4447 177.296 32.668C177.508 32.8913 177.849 33.0027 178.318 33.002C178.616 33.0027 178.871 32.972 179.072 32.91C179.295 32.8267 179.487 32.7433 179.678 32.66L180.662 35.684C180.28 35.8647 179.782 36.002 179.166 36.096C178.551 36.212 177.914 36.2707 177.236 36.27C175.74 36.2707 174.582 35.8753 173.77 35.086C172.957 34.2753 172.54 33.098 172.54 31.556V18.564H172.944ZM189.744 21.856V25.166H182.26V21.856H189.744ZM184.084 18.564H188.148V31.534C188.148 32.0673 188.245 32.4447 188.436 32.668C188.648 32.8913 188.989 33.0027 189.458 33.002C189.756 33.0027 190.011 32.972 190.212 32.91C190.435 32.8267 190.627 32.7433 190.818 32.66L191.802 35.684C191.42 35.8647 190.922 36.002 190.306 36.096C189.691 36.212 189.054 36.2707 188.376 36.27C186.88 36.2707 185.722 35.8753 184.91 35.086C184.097 34.2753 183.68 33.098 183.68 31.556V18.564H184.084Z" fill="#1EAEDB"/>
</svg>
